<svg xmlns="http://www.w3.org/2000/svg" width="22" height="13" viewBox="4566.968 3337.437 22 13" fill="#b4b4b4"><path d="M4577.955 3338.535c2.75-.008 5.39 1.083 7.328 3.033l2.11 2.11-2.11 2.108c-4.045 4.048-10.605 4.05-14.652.005l-.004-.004-2.11-2.11 2.11-2.108c1.94-1.95 4.58-3.042 7.33-3.033m0-1.098c-3.038-.004-5.952 1.202-8.1 3.35l-2.89 2.89 2.89 2.88c4.476 4.475 11.73 4.475 16.207 0l2.88-2.88-2.88-2.89c-2.15-2.15-5.067-3.357-8.108-3.35z"/><path d="M4577.955 3340.38c-.325.004-.646.056-.956.154.82.393 1.168 1.377.776 2.198-.392.82-1.376 1.168-2.197.777-.34-.163-.615-.438-.778-.778-.093.306-.142.625-.143.945 0 1.82 1.475 3.296 3.295 3.296s3.296-1.476 3.296-3.296-1.475-3.297-3.295-3.297z"/></svg>
