<svg xmlns="http://www.w3.org/2000/svg" width="1440" height="1486" viewBox="0 0 1440 1486"><path fill="#3B4154" d="M0 0h1441.266v1486.875H0z"/><path fill="#061E33" d="M102.886 364.435l4.917 4.917-12.292 12.292 12.293 12.292-4.917 4.917-12.292-12.293-12.292 12.292-4.917-4.917 12.292-12.292-12.292-12.292 4.917-4.916 12.292 12.292 12.292-12.29m-24.584-7.073l-3.536 3.536-4.917 4.916-3.537 3.536 3.536 3.536 8.755 8.756-8.755 8.756-3.536 3.536 3.536 3.536 4.917 4.917 3.536 3.535 3.536-3.536 8.755-8.758 8.756 8.757 3.537 3.535 3.536-3.536 4.917-4.918 3.536-3.536-3.536-3.536-8.757-8.757 8.757-8.756 3.536-3.536-3.536-3.535-4.917-4.917-3.535-3.535-3.536 3.535-8.756 8.756-8.756-8.756-3.538-3.535zM1024.42 1118.897l4.915 4.916-12.293 12.293 12.293 12.29-4.916 4.92-12.294-12.294-12.29 12.293-4.92-4.918 12.294-12.29-12.293-12.294 4.918-4.916 12.29 12.29 12.294-12.29m-24.585-7.072l-3.537 3.537-4.916 4.916-3.535 3.535 3.535 3.537 8.756 8.756-8.756 8.756-3.535 3.535 3.535 3.537 4.916 4.916 3.537 3.535 3.535-3.535 8.756-8.756 8.756 8.756 3.537 3.535 3.534-3.535 4.916-4.916 3.537-3.537-3.537-3.535-8.756-8.756 8.756-8.758 3.537-3.535-3.537-3.535-4.916-4.916-3.535-3.535-3.538 3.535-8.756 8.756-8.756-8.756-3.535-3.537zM1000.138 507.3l4.918 4.916-12.293 12.293 12.293 12.29-4.918 4.918-12.29-12.293-12.294 12.293-4.916-4.917 12.29-12.29-12.29-12.293 4.916-4.917 12.293 12.292 12.29-12.292m-24.583-7.07l-3.535 3.535-4.917 4.916-3.537 3.537 3.537 3.536 8.756 8.756-8.757 8.755-3.537 3.536 3.537 3.537 4.916 4.916 3.534 3.536 3.537-3.537 8.757-8.756 8.756 8.756 3.535 3.536 3.537-3.537 4.916-4.916 3.536-3.536-3.535-3.535-8.755-8.756 8.756-8.758 3.536-3.536-3.535-3.535-4.917-4.915-3.535-3.535-3.535 3.535-8.756 8.756-8.756-8.755-3.536-3.536zM585.445 110.197l4.918 4.917-12.293 12.292 12.293 12.292-4.918 4.917-12.29-12.292-12.294 12.292-4.915-4.917 12.29-12.292-12.29-12.292 4.916-4.917 12.294 12.292 12.29-12.293m-24.583-7.072l-3.534 3.536-4.917 4.918-3.537 3.536 3.536 3.536 8.756 8.756-8.757 8.756-3.537 3.536 3.536 3.536 4.916 4.917 3.535 3.537 3.537-3.536 8.757-8.756 8.756 8.757 3.535 3.537 3.536-3.536 4.918-4.916 3.535-3.536-3.535-3.536-8.757-8.757 8.758-8.756 3.535-3.537-3.535-3.536-4.918-4.917-3.535-3.535-3.535 3.535-8.756 8.756-8.757-8.756-3.536-3.535zM667.858 946.795l-59.393-59.393 59.393-59.394 59.394 59.394zM338.833 167.157l-37.498-37.498 37.498-37.5 37.498 37.5zM1118.075 575.238l-37.498-37.498 37.5-37.5 37.497 37.5zM1388.06 1316.208l-37.5-37.498 37.5-37.5 37.497 37.5zM42.59 727.377l-37.5-37.5 37.5-37.497 37.497 37.498zM306.64 280.486L418 169.123l7.425 7.424L314.064 287.91zM1221.434 907.547l111.362-111.362 7.424 7.424-111.362 111.36zM608.457 1383.223L719.82 1271.86l7.423 7.426-111.362 111.362zM273.634 1042.447l111.364-111.364 7.424 7.424-111.364 111.364zM1313.076 209.99L1424.44 98.628l7.425 7.426-111.363 111.363zM646.257 0l35.307 35.308L716.87 0"/><path fill="#00ADEE" d="M960.737 0L333.432 623.686c-42.35 42.104-42.547 110.567-.442 152.917 42.103 42.35 110.568 42.545 152.917.44l628.773-625.142c42.013-41.77 42.532-109.48 1.424-151.9H960.737z"/><path fill="#DE0F79" d="M1113.067 0h-141.54c-1.866 1.618-3.693 3.305-5.472 5.072-42.35 42.103-42.545 110.568-.44 152.915l322.64 324.514c41.72 41.96 109.313 42.532 151.745 1.578V328.403L1118.972 5.513c-1.915-1.925-3.886-3.762-5.905-5.513z"/><path fill="#061E33" d="M1116.025 0H964.082c-.324.314-.65.623-.972.94-42.744 42.497-42.94 111.59-.45 154.328 42.493 42.74 111.587 42.94 154.33.445 42.737-42.492 42.94-111.59.448-154.328-.465-.47-.94-.926-1.413-1.385z"/><path fill="#00ADEE" d="M85.883 1311.317c-32.41-28.038-37.42-75.958-12.637-109.98-.005-.01-.01-.016-.016-.023-21.1 23.207-46.142 40.873-73.23 52.87v171.8c77.018-18.282 146.25-59.92 199.282-120.703l-.052-.043c-29.852 32.036-79.948 34.973-113.347 6.08z"/><path fill="#DE0F79" d="M294.146 1024.472c-7.38-102.02-54.045-195.076-131.4-261.996C115.19 721.336 59.53 693.104 0 679.166v171.582c19.832 8.633 38.707 20.35 55.907 35.228 88.02 76.145 100.725 207.457 31.274 298.873l.963.832c30.216-24.36 74.42-24.415 104.806 1.872 30.388 26.29 36.69 70.037 16.934 103.444l.932.806c60.827-75.645 90.364-170.008 83.33-267.332z"/><path fill="#061E33" d="M77.536 1195.9c-29.562 34.173-25.827 85.853 8.347 115.417 34.178 29.566 85.853 25.82 115.415-8.352 29.57-34.184 25.83-85.844-8.348-115.412-34.175-29.564-85.843-25.835-115.414 8.346z"/><circle fill="#061E33" cx="862.631" cy="908.537" r="21.141"/><path fill="#DE0F79" d="M988.554 1002.263c-9.24-5.106-13.132-16.108-9.618-25.728l-.214-.118c-15.963 25.002-48.938 33.646-75.258 19.104-26.322-14.542-36.555-47.058-23.885-73.88l-.27-.15c-6.273 8.097-17.66 10.66-26.903 5.553-9.244-5.108-13.134-16.11-9.62-25.73l-.18-.1c-11.333 22.375-13.755 47.81-6.772 72.035 7.32 25.395 24.092 46.424 47.225 59.205 23.133 12.78 49.86 15.785 75.256 8.467 24.227-6.984 44.47-22.572 57.38-44.074l-.24-.132c-6.274 8.094-17.66 10.655-26.902 5.55z"/><path fill="#00ADEE" d="M1025.985 918.438c-7.32-25.395-24.092-46.424-47.225-59.203-23.133-12.78-49.86-15.787-75.256-8.467-24.78 7.143-45.373 23.3-58.234 45.568.026.01.054.02.08.028 6.126-8.72 17.964-11.605 27.504-6.333 9.114 5.034 13.028 15.806 9.77 25.326.098.066.2.13.297.198 15.897-25.223 49.017-33.988 75.437-19.39 26.864 14.842 36.958 48.402 23.06 75.528 6.102-8.806 18.007-11.735 27.587-6.44 9.144 5.05 13.05 15.874 9.733 25.417.103.046.205.09.308.138 11.477-22.455 13.958-48.022 6.94-72.37z"/><circle fill="#061E33" cx="998.778" cy="983.758" r="21.14"/><path fill="#DE0F79" d="M67.022 247.8c-9.242-5.106-13.133-16.108-9.62-25.728l-.212-.118C44.735 241.46 21.926 251.008 0 247.356v42.573c12.207 1.157 24.647.023 36.784-3.475 24.226-6.984 44.468-22.572 57.378-44.074l-.238-.13c-6.274 8.095-17.658 10.657-26.902 5.55z"/><path fill="#00ADEE" d="M104.454 163.977c-7.32-25.396-24.092-46.424-47.225-59.205C39.52 94.99 19.71 90.94 0 92.86v42.578c12.21-2.062 25.168-.175 36.825 6.265 26.865 14.843 36.957 48.4 23.058 75.53 6.103-8.807 18.008-11.736 27.587-6.443 9.144 5.052 13.05 15.875 9.734 25.418l.307.138c11.48-22.455 13.96-48.022 6.944-72.37z"/><circle fill="#061E33" cx="77.246" cy="229.296" r="21.141"/></svg>