<svg xmlns="http://www.w3.org/2000/svg" width="160" height="38" viewBox="0 0 160 38"><path fill="#F3948D" d="M123.41 0v.023h-7.564c-1.96 0-3.547 1.586-3.547 3.543s1.587 3.543 3.546 3.543h7.752c1.942.187 3.466 1.75 3.466 3.652 0 1.964-1.623 3.57-3.655 3.67v7.092c5.944-.107 10.75-4.892 10.75-10.762S129.353.107 123.41 0z"/><path fill="#F27458" d="M123.45 14.324h-.04v7.088l.04-.002c2.26 0 4.098 1.757 4.098 3.917 0 2.064-1.68 3.756-3.802 3.903l-.06-.003h-7.84c-1.96 0-3.547 1.586-3.547 3.543s1.587 3.543 3.546 3.543h7.563v.016h.04c6.17 0 11.193-4.936 11.193-11.003s-5.022-11.003-11.194-11.003z"/><path fill="#F3948D" d="M30.743 19.028c-.03 6.485-5.322 11.75-11.823 11.75-6.52 0-11.825-5.297-11.825-11.81 0-6.51 5.305-11.81 11.825-11.81 3.232 0 6.166 1.304 8.302 3.41.286-.186.546-.41.75-.592.872-.772 1.653-1.638 2.396-2.533.553-.667 1.08-1.395 1.63-2.108C28.6 2.08 23.992.073 18.92.073 8.487.073 0 8.55 0 18.97c0 10.42 8.487 18.896 18.92 18.896S37.84 29.39 37.84 18.97v-.066c-2.367.024-4.732.09-7.097.124z"/><path fill="#ADCF35" d="M46.005 36.212c-1.96 0-3.547-1.586-3.547-3.543V3.616c0-1.957 1.588-3.543 3.547-3.543 1.96 0 3.547 1.586 3.547 3.543V32.67c0 1.956-1.588 3.542-3.547 3.542z"/><path fill="#00ACEE" d="M116.078 36.212c-1.96 0-3.547-1.586-3.547-3.543V3.616c0-1.957 1.59-3.543 3.548-3.543s3.547 1.586 3.547 3.543V32.67c0 1.956-1.588 3.542-3.547 3.542zM58.067 36.212c-1.96 0-3.547-1.586-3.547-3.543V3.616c0-1.957 1.588-3.543 3.547-3.543 1.96 0 3.547 1.586 3.547 3.543V32.67c0 1.956-1.588 3.542-3.547 3.542z"/><path fill="#F3948D" d="M76.242.135H57.917c-1.96 0-3.547 1.586-3.547 3.543S55.96 7.22 57.92 7.22h18.325c1.96 0 3.547-1.585 3.547-3.542C79.79 1.72 78.2.135 76.24.135z"/><path fill="#FFF100" d="M65.28 22.456h-6.973c-1.96 0-3.547-1.586-3.547-3.543s1.588-3.543 3.547-3.543h6.973c1.96 0 3.547 1.586 3.547 3.543s-1.588 3.543-3.547 3.543z"/><path fill="#ADCF35" d="M141.423 36.212c-1.96 0-3.548-1.586-3.548-3.543V3.616c0-1.957 1.588-3.543 3.548-3.543s3.547 1.586 3.547 3.543V32.67c0 1.956-1.588 3.542-3.547 3.542z"/><path fill="#F3948D" d="M156.677 7.22h-15.013c-1.96 0-3.547-1.585-3.547-3.542 0-1.957 1.588-3.543 3.547-3.543h15.013c1.96 0 3.548 1.586 3.548 3.543s-1.59 3.543-3.548 3.543z"/><path fill="#FFF100" d="M148.636 22.456h-6.972c-1.96 0-3.547-1.586-3.547-3.543s1.588-3.543 3.547-3.543h6.972c1.96 0 3.548 1.586 3.548 3.543s-1.59 3.543-3.548 3.543zM34.245 22.456h-14.49c-1.96 0-3.55-1.586-3.55-3.543s1.59-3.543 3.55-3.543h14.49c1.96 0 3.547 1.586 3.547 3.543s-1.588 3.543-3.547 3.543z"/><path fill="#00ACEE" d="M156.677 36.15h-15.013c-1.96 0-3.547-1.585-3.547-3.542 0-1.957 1.588-3.543 3.547-3.543h15.013c1.96 0 3.548 1.586 3.548 3.543 0 1.956-1.59 3.543-3.548 3.543z"/><circle fill="#FFF" cx="29.332" cy="7.71" r="3.58"/><circle fill="#FFF" cx="46.045" cy="3.616" r="3.58"/><circle fill="#FFF" cx="46.045" cy="32.59" r="3.58"/><circle fill="#FFF" cx="34.299" cy="18.93" r="3.58"/><circle fill="#FFF" cx="58.343" cy="18.93" r="3.58"/><circle fill="#FFF" cx="141.738" cy="18.93" r="3.58"/><circle fill="#FFF" cx="19.834" cy="18.93" r="3.58"/><path fill="#00ACEE" d="M76.148 36.212c-1.96 0-3.547-1.586-3.547-3.543V3.616C72.6 1.66 74.19.074 76.15.074c1.96 0 3.548 1.586 3.548 3.543V32.67c0 1.956-1.588 3.542-3.548 3.542z"/><path fill="#F3948D" d="M101.402 24.845c-.13 2.556-2.246 4.596-4.836 4.596s-4.706-2.04-4.836-4.595h-7.1c.13 6.464 5.433 11.682 11.936 11.682s11.805-5.218 11.937-11.682h-7.1z"/><path fill="#FFF100" d="M88.683.136H76.9v7.086h11.783c1.96 0 3.547-1.586 3.547-3.543S90.642.135 88.683.135z"/><path fill="#ADCF35" d="M88.21 28.34c-1.96 0-3.547-1.587-3.547-3.544V3.616c0-1.956 1.588-3.542 3.547-3.542s3.548 1.586 3.548 3.543v21.18c0 1.955-1.59 3.542-3.548 3.542zM105.08 28.34c-1.958 0-3.547-1.587-3.547-3.544V3.616c0-1.956 1.588-3.542 3.548-3.542s3.548 1.586 3.548 3.543v21.18c0 1.955-1.588 3.542-3.547 3.542z"/><circle fill="#FFF" cx="88.218" cy="24.774" r="3.58"/><circle fill="#FFF" cx="88.218" cy="3.87" r="3.58"/><circle fill="#FFF" cx="105.01" cy="24.774" r="3.58"/><circle fill="#FFF" cx="115.799" cy="3.595" r="3.58"/><circle fill="#FFF" cx="141.499" cy="3.595" r="3.58"/><circle fill="#FFF" cx="115.841" cy="32.771" r="3.58"/><circle fill="#FFF" cx="141.383" cy="32.771" r="3.58"/><circle fill="#FFF" cx="76.267" cy="3.616" r="3.58"/><circle fill="#FFF" cx="58.293" cy="3.616" r="3.58"/></svg>
