<svg viewBox="0 0 1963 1527" width="1963" height="1527" xmlns="http://www.w3.org/2000/svg">
  <path fill="#00ADEE" d="M 815.52 859.812 C 773.415 817.462 773.613 749 815.96 706.895 L 1444.734 81.75 C 1487.082 39.647 1555.546 39.846 1597.65 82.194 C 1639.754 124.542 1639.557 193.006 1597.208 235.111 L 968.436 860.255 C 926.086 902.358 857.622 902.163 815.519 859.813 Z" opacity=".7"/>
  <path fill="#DE0F79" d="M 1770.784 565.71 L 1448.144 241.2 C 1406.04 198.853 1406.236 130.388 1448.584 88.285 C 1490.934 46.18 1559.397 46.378 1601.501 88.725 L 1924.145 413.239 C 1966.247 455.587 1966.051 524.051 1923.702 566.156 C 1881.352 608.259 1812.89 608.061 1770.786 565.713 Z"/>
  <path fill="#061E33" d="M 1445.64 84.152 C 1402.896 126.648 1402.7 195.742 1445.19 238.479 C 1487.683 281.217 1556.777 281.419 1599.52 238.923 C 1642.257 196.431 1642.46 127.333 1599.968 84.595 C 1557.476 41.855 1488.378 41.66 1445.64 84.151 Z"/>
  <path fill="#00ADEE" d="M 629.04 1342.887 C 613.205 1330.429 595.417 1320.787 579.568 1308.331 C 571.273 1301.811 562.078 1293.874 555.76 1284.524 C 475.956 1372.3 339.785 1380.864 249.576 1302.827 C 157.978 1223.587 147.921 1084.597 227.166 992.995 C 228.184 991.819 229.216 990.665 230.254 989.515 C 229.327 989.172 228.436 988.532 227.684 987.525 C 224.596 983.399 221.73 979.279 219.684 974.525 C 219.121 973.22 219.048 971.985 219.312 970.91 C 217.814 968.184 216.274 965.488 214.692 962.82 C 201.529 951.9 184.725 943.91 171.242 936.17 C 157.282 928.157 145.919 918.15 134.784 906.576 C 126.408 897.869 117.844 888.431 107.64 881.656 C 106.31 883.146 104.984 884.646 103.673 886.162 C 36.747 963.522 3.963 1062.308 11.337 1164.329 C 18.717 1266.349 65.383 1359.403 142.737 1426.323 C 220.094 1493.243 318.894 1526.033 420.917 1518.653 C 522.387 1511.308 614.967 1465.106 681.811 1388.49 C 663.939 1373.757 647.241 1357.205 629.041 1342.887 Z" opacity=".7"/>
  <path fill="#DE0F79" d="M 238.173 981.248 C 318.643 899.366 450.417 893.041 538.437 969.186 C 626.457 1045.332 639.162 1176.643 569.711 1268.06 L 693.346 1375.015 C 754.173 1299.369 783.711 1205.007 776.676 1107.683 C 769.296 1005.663 722.632 912.607 645.276 845.687 C 567.92 778.767 469.118 745.981 367.096 753.357 C 269.773 760.404 180.644 803.213 114.538 874.294 L 238.174 981.248 Z"/>
  <path fill="#061E33" d="M 560.066 1279.11 C 530.504 1313.283 534.239 1364.963 568.413 1394.527 C 602.591 1424.093 654.266 1420.347 683.828 1386.175 C 713.398 1351.992 709.658 1300.331 675.48 1270.765 C 641.305 1241.2 589.637 1244.929 560.066 1279.11 Z M 104.79 885.254 C 75.227 919.427 78.957 971.102 113.136 1000.67 C 147.308 1030.232 198.988 1026.49 228.55 992.32 C 258.12 958.136 254.374 906.47 220.202 876.908 C 186.022 847.34 134.36 851.072 104.789 885.254 Z"/>
  <path fill="#00ADEE" d="M 519.354 224.914 C 546.227 239.761 556.318 273.336 542.4 300.469 C 549.607 305.459 557.13 309.379 565.127 313.025 C 569.634 315.081 574.821 317.175 580.041 319.555 C 591.521 297.1 594.001 271.535 586.984 247.185 C 579.664 221.79 562.892 200.762 539.759 187.981 C 516.626 175.2 489.899 172.194 464.502 179.514 C 439.724 186.658 419.13 202.814 406.27 225.084 C 419.644 229.574 432.445 236.376 443.92 244.302 C 459.818 219.082 492.936 210.315 519.356 224.912 Z" opacity=".7"/>
  <path fill="#DE0F79" d="M 539.72 305.165 C 523.756 330.167 490.783 338.811 464.46 324.268 C 438.14 309.726 427.907 277.21 440.576 250.388 L 403.604 229.961 C 392.272 252.337 389.851 277.771 396.832 301.996 C 404.152 327.392 420.924 348.42 444.057 361.201 C 467.19 373.982 493.919 376.988 519.314 369.668 C 543.54 362.684 563.782 347.096 576.692 325.594 L 539.72 305.166 Z"/>
  <circle fill="#061E33" cx="423.629" cy="237.285" r="21.142"/>
  <circle fill="#061E33" cx="228.776" cy="-319.494" r="21.141" transform="matrix(0.999999, 0, 0, 1, 331.000183, 632)"/>
  <path fill="#061E33" d="M 585.416 447.645 L 590.333 452.562 L 578.041 464.854 L 590.334 477.146 L 585.417 482.063 L 573.125 469.771 L 560.833 482.064 L 555.916 477.147 L 568.208 464.855 L 555.916 452.563 L 560.833 447.646 L 573.125 459.938 L 585.417 447.646 M 560.833 440.576 L 557.297 444.111 L 552.38 449.028 L 548.843 452.564 L 552.379 456.1 L 561.134 464.855 L 552.378 473.611 L 548.841 477.148 L 552.377 480.684 L 557.293 485.601 L 560.829 489.137 L 564.365 485.601 L 573.121 476.844 L 581.877 485.601 L 585.413 489.137 L 588.949 485.601 L 593.866 480.684 L 597.401 477.148 L 593.865 473.612 L 585.107 464.856 L 593.864 456.1 L 597.399 452.564 L 593.863 449.028 L 588.945 444.111 L 585.41 440.575 L 581.874 444.11 L 573.119 452.865 L 564.363 444.109 L 560.825 440.573 Z"/>
  <path fill="#00ADEE" d="M 1440.887 979.376 C 1467.76 994.223 1477.851 1027.799 1463.933 1054.931 C 1471.14 1059.923 1478.663 1063.843 1486.661 1067.491 C 1491.169 1069.545 1496.355 1071.638 1501.575 1074.021 C 1513.055 1051.565 1515.535 1025.998 1508.517 1001.651 C 1501.197 976.255 1484.425 955.227 1461.292 942.447 C 1438.16 929.667 1411.432 926.66 1386.036 933.98 C 1361.258 941.122 1340.663 957.278 1327.803 979.548 C 1341.177 984.038 1353.979 990.84 1365.453 998.766 C 1381.351 973.544 1414.47 964.778 1440.89 979.376 Z" opacity=".7"/>
  <path fill="#DE0F79" d="M 1461.252 1059.627 C 1445.288 1084.629 1412.314 1093.273 1385.992 1078.731 C 1359.67 1064.189 1349.439 1031.673 1362.108 1004.851 L 1325.136 984.424 C 1313.804 1006.799 1311.382 1032.232 1318.364 1056.458 C 1325.684 1081.854 1342.456 1102.882 1365.589 1115.663 C 1388.721 1128.443 1415.449 1131.449 1440.845 1124.13 C 1465.071 1117.145 1485.313 1101.557 1498.225 1080.055 L 1461.251 1059.627 Z"/>
  <circle fill="#061E33" cx="254.161" cy="359.747" r="21.141" transform="matrix(0.999999, 0, 0, 1, 1091.000244, 632)"/>
  <circle fill="#061E33" cx="490.308" cy="434.968" r="21.141" transform="matrix(0.999999, 0, 0, 1, 991.000732, 632)"/>
  <path fill="#061E33" d="M 1506.948 1202.107 L 1511.865 1207.023 L 1499.572 1219.316 L 1511.865 1231.608 L 1506.948 1236.525 L 1494.656 1224.232 L 1482.364 1236.525 L 1477.447 1231.608 L 1489.739 1219.316 L 1477.446 1207.024 L 1482.363 1202.107 L 1494.655 1214.399 L 1506.947 1202.106 M 1482.363 1195.036 L 1478.827 1198.571 L 1473.911 1203.487 L 1470.375 1207.023 L 1473.911 1210.559 L 1482.667 1219.315 L 1473.911 1228.071 L 1470.375 1231.607 L 1473.911 1235.143 L 1478.827 1240.059 L 1482.363 1243.595 L 1485.899 1240.059 L 1494.655 1231.303 L 1503.411 1240.059 L 1506.947 1243.595 L 1510.483 1240.059 L 1515.399 1235.143 L 1518.935 1231.607 L 1515.399 1228.071 L 1506.643 1219.315 L 1515.399 1210.558 L 1518.935 1207.021 L 1515.399 1203.486 L 1510.482 1198.57 L 1506.947 1195.035 L 1503.411 1198.57 L 1494.655 1207.326 L 1485.899 1198.57 L 1482.363 1195.034 Z M 1482.668 590.51 L 1487.585 595.427 L 1475.292 607.72 L 1487.585 620.012 L 1482.668 624.929 L 1470.376 612.635 L 1458.084 624.93 L 1453.167 620.012 L 1465.46 607.72 L 1453.167 595.428 L 1458.084 590.511 L 1470.376 602.804 L 1482.668 590.512 M 1458.084 583.442 L 1454.548 586.977 L 1449.632 591.893 L 1446.096 595.43 L 1449.632 598.966 L 1458.388 607.722 L 1449.632 616.477 L 1446.096 620.013 L 1449.632 623.55 L 1454.548 628.466 L 1458.084 632 L 1461.62 628.464 L 1470.376 619.708 L 1479.132 628.464 L 1482.668 632 L 1486.204 628.464 L 1491.12 623.548 L 1494.656 620.012 L 1491.12 616.476 L 1482.364 607.72 L 1491.12 598.963 L 1494.656 595.427 L 1491.12 591.892 L 1486.203 586.976 L 1482.668 583.441 L 1479.132 586.977 L 1470.376 595.733 L 1461.62 586.977 L 1458.084 583.44 Z M 1067.975 193.407 L 1072.892 198.324 L 1060.6 210.616 L 1072.892 222.908 L 1067.975 227.825 L 1055.683 215.533 L 1043.391 227.825 L 1038.475 222.908 L 1050.767 210.616 L 1038.475 198.324 L 1043.392 193.407 L 1055.685 205.699 L 1067.977 193.406 M 1043.393 186.336 L 1039.858 189.871 L 1034.941 194.788 L 1031.405 198.323 L 1034.941 201.859 L 1043.697 210.616 L 1034.941 219.372 L 1031.405 222.908 L 1034.941 226.443 L 1039.858 231.36 L 1043.394 234.896 L 1046.931 231.36 L 1055.687 222.603 L 1064.443 231.36 L 1067.978 234.896 L 1071.514 231.36 L 1076.432 226.443 L 1079.968 222.907 L 1076.432 219.37 L 1067.675 210.613 L 1076.433 201.857 L 1079.969 198.321 L 1076.433 194.785 L 1071.516 189.868 L 1067.982 186.334 L 1064.446 189.869 L 1055.69 198.626 L 1046.934 189.87 L 1043.397 186.336 Z M 1164.1 118.516 L 1104.706 59.123 L 1164.1 -0.27 L 1223.493 59.123 Z M 1150.39 1029.997 L 1090.998 970.604 L 1150.39 911.21 L 1209.784 970.604 Z M 821.362 250.36 L 783.864 212.86 L 821.362 175.363 L 858.86 212.861 Z M 1600.605 658.44 L 1563.108 620.943 L 1600.608 583.443 L 1638.104 620.941 Z M 1870.588 1399.41 L 1833.09 1361.91 L 1870.59 1324.41 L 1908.087 1361.908 Z M 525.124 810.58 L 487.624 773.082 L 525.124 735.582 L 562.622 773.082 Z M 789.176 363.697 L 900.54 252.334 L 907.964 259.758 L 796.6 371.122 Z M 1703.972 990.757 L 1815.335 879.393 L 1822.76 886.818 L 1711.396 998.18 Z M 1090.995 1466.433 L 1202.358 1355.07 L 1209.783 1362.494 L 1098.42 1473.858 Z M 756.173 1125.653 L 867.536 1014.289 L 874.961 1021.713 L 763.6 1133.077 Z M 1795.617 293.208 L 1906.98 181.845 L 1914.405 189.27 L 1803.042 300.633 Z"/>
</svg>
