<svg xmlns="http://www.w3.org/2000/svg" width="283.46" height="198.43" viewBox="0 0 283.46 198.43"><path fill="#00ADEE" d="M-275.48 227.812c-42.105-42.35-41.907-110.812.44-152.917L353.734-550.25c42.348-42.103 110.812-41.904 152.916.444 42.104 42.348 41.907 110.812-.442 152.917l-628.772 625.144c-42.35 42.103-110.814 41.908-152.917-.442z" opacity=".7"/><path fill="#DE0F79" d="M679.784-66.29L357.144-390.8c-42.104-42.347-41.908-110.812.44-152.915 42.35-42.105 110.813-41.907 152.917.44l322.644 324.514c42.102 42.348 41.906 110.812-.443 152.917-42.35 42.103-110.812 41.905-152.916-.443z"/><path fill="#061E33" d="M354.64-547.848c-42.744 42.496-42.94 111.59-.45 154.327 42.493 42.738 111.587 42.94 154.33.444 42.737-42.492 42.94-111.59.448-154.328-42.492-42.74-111.59-42.935-154.328-.444z"/><path fill="#00ADEE" d="M-461.96 710.887c-15.835-12.458-33.623-22.1-49.472-34.556-8.295-6.52-17.49-14.457-23.808-23.807-79.804 87.776-215.975 96.34-306.184 18.303-91.598-79.24-101.655-218.23-22.41-309.832 1.018-1.176 2.05-2.33 3.088-3.48-.927-.343-1.818-.983-2.57-1.99-3.088-4.126-5.954-8.246-8-13-.563-1.305-.636-2.54-.372-3.615-1.498-2.726-3.038-5.422-4.62-8.09-13.163-10.92-29.967-18.91-43.45-26.65-13.96-8.013-25.323-18.02-36.458-29.594-8.376-8.707-16.94-18.145-27.144-24.92-1.33 1.49-2.656 2.99-3.967 4.506-66.926 77.36-99.71 176.146-92.336 278.167 7.38 102.02 54.046 195.074 131.4 261.994 77.357 66.92 176.157 99.71 278.18 92.33 101.47-7.345 194.05-53.547 260.894-130.163-17.872-14.733-34.57-31.285-52.77-45.603z" opacity=".7"/><path fill="#DE0F79" d="M-852.827 349.248c80.47-81.882 212.244-88.207 300.264-12.062 88.02 76.146 100.725 207.457 31.274 298.874l123.635 106.955c60.827-75.646 90.365-170.008 83.33-267.332-7.38-102.02-54.044-195.076-131.4-261.996-77.356-66.92-176.158-99.706-278.18-92.33-97.323 7.047-186.452 49.856-252.558 120.937l123.636 106.954z"/><path fill="#061E33" d="M-530.934 647.11c-29.562 34.173-25.827 85.853 8.347 115.417 34.178 29.566 85.853 25.82 115.415-8.352 29.57-34.183 25.83-85.844-8.348-115.41-34.175-29.565-85.843-25.836-115.414 8.345zM-986.21 253.254c-29.563 34.173-25.833 85.848 8.346 115.416 34.172 29.562 85.852 25.82 115.414-8.35 29.57-34.184 25.824-85.85-8.348-115.412-34.18-29.568-85.842-25.836-115.413 8.346z"/><path fill="#00ADEE" d="M-571.646-407.086c26.873 14.847 36.964 48.422 23.046 75.555 7.207 4.99 14.73 8.91 22.727 12.556 4.507 2.056 9.694 4.15 14.914 6.53 11.48-22.455 13.96-48.02 6.943-72.37-7.32-25.395-24.092-46.423-47.225-59.204s-49.86-15.787-75.257-8.467c-24.778 7.144-45.372 23.3-58.232 45.57 13.374 4.49 26.175 11.292 37.65 19.218 15.898-25.22 49.016-33.987 75.436-19.39z" opacity=".7"/><path fill="#DE0F79" d="M-551.28-326.835c-15.964 25.002-48.937 33.646-75.26 19.103-26.32-14.542-36.553-47.058-23.884-73.88l-36.972-20.427c-11.332 22.376-13.753 47.81-6.772 72.035 7.32 25.396 24.092 46.424 47.225 59.205s49.862 15.787 75.257 8.467c24.226-6.984 44.468-22.572 57.378-44.074l-36.972-20.428z"/><circle fill="#061E33" cx="-667.371" cy="-394.715" r="21.142"/><circle fill="#061E33" cx="-531.224" cy="-319.494" r="21.141"/><path fill="#061E33" d="M-505.584-184.355l4.917 4.917-12.292 12.292 12.293 12.292-4.917 4.917-12.292-12.292-12.292 12.293-4.917-4.917 12.292-12.292-12.292-12.292 4.917-4.917 12.292 12.292 12.292-12.292m-24.584-7.07l-3.536 3.535-4.917 4.917-3.537 3.536 3.536 3.536 8.755 8.755-8.756 8.756-3.537 3.537 3.536 3.536 4.916 4.917 3.536 3.536 3.536-3.536 8.756-8.757 8.756 8.757 3.536 3.536 3.536-3.536 4.917-4.917 3.535-3.536-3.536-3.536-8.758-8.756 8.757-8.756 3.535-3.536-3.536-3.536-4.918-4.917-3.535-3.536-3.536 3.535-8.755 8.755-8.756-8.756-3.538-3.536z"/><path fill="#00ADEE" d="M349.887 347.376c26.873 14.847 36.964 48.423 23.046 75.555 7.207 4.992 14.73 8.912 22.728 12.56 4.508 2.054 9.694 4.147 14.914 6.53 11.48-22.456 13.96-48.023 6.942-72.37-7.32-25.396-24.092-46.424-47.225-59.204-23.132-12.78-49.86-15.787-75.256-8.467-24.778 7.142-45.373 23.298-58.233 45.568 13.374 4.49 26.176 11.292 37.65 19.218 15.898-25.222 49.017-33.988 75.437-19.39z" opacity=".7"/><path fill="#DE0F79" d="M370.252 427.627c-15.964 25.002-48.938 33.646-75.26 19.104s-36.553-47.058-23.884-73.88l-36.972-20.427c-11.332 22.375-13.754 47.808-6.772 72.034 7.32 25.396 24.092 46.424 47.225 59.205 23.132 12.78 49.86 15.786 75.256 8.467 24.226-6.985 44.468-22.573 57.38-44.075l-36.974-20.428z"/><circle fill="#061E33" cx="254.161" cy="359.747" r="21.141"/><circle fill="#061E33" cx="390.308" cy="434.968" r="21.141"/><path fill="#061E33" d="M415.948 570.107l4.917 4.916-12.293 12.293 12.293 12.292-4.917 4.917-12.292-12.293-12.292 12.293-4.917-4.917 12.292-12.292-12.293-12.292 4.917-4.917 12.292 12.292 12.292-12.293m-24.584-7.07l-3.536 3.535-4.916 4.916-3.536 3.536 3.536 3.536 8.756 8.756-8.756 8.756-3.536 3.536 3.536 3.536 4.916 4.916 3.536 3.536 3.536-3.536 8.756-8.756 8.756 8.756 3.536 3.536 3.536-3.536 4.916-4.916 3.536-3.536-3.536-3.536-8.756-8.756 8.756-8.757 3.536-3.537-3.536-3.535-4.917-4.916-3.535-3.535-3.536 3.535-8.756 8.756-8.756-8.756-3.536-3.536zM391.668-41.49l4.917 4.917-12.293 12.293 12.293 12.292-4.917 4.917-12.292-12.294L367.084-7.07l-4.917-4.918L374.46-24.28l-12.293-12.292 4.917-4.917 12.292 12.293 12.292-12.292m-24.584-7.07l-3.536 3.535-4.916 4.916-3.536 3.537 3.536 3.536 8.756 8.756-8.756 8.755-3.536 3.536 3.536 3.537 4.916 4.916L367.084 0l3.536-3.536 8.756-8.756 8.756 8.756L391.668 0l3.536-3.536 4.916-4.916 3.536-3.536-3.536-3.536-8.756-8.756 8.756-8.757 3.536-3.536-3.536-3.535-4.917-4.916-3.535-3.535-3.536 3.536-8.756 8.756-8.756-8.756-3.536-3.537zM-23.025-438.593l4.917 4.917-12.292 12.292 12.292 12.292-4.917 4.917-12.292-12.292-12.292 12.292-4.916-4.917 12.292-12.292-12.292-12.292 4.917-4.917 12.293 12.292 12.292-12.293m-24.584-7.07l-3.535 3.535-4.917 4.917-3.536 3.535 3.536 3.536 8.756 8.757-8.756 8.756-3.536 3.536 3.536 3.535 4.917 4.917 3.536 3.536 3.537-3.536 8.756-8.757 8.756 8.757 3.535 3.536 3.536-3.536 4.918-4.917 3.536-3.536-3.536-3.537-8.757-8.757 8.758-8.756 3.536-3.536-3.536-3.536-4.917-4.917-3.534-3.534-3.536 3.535-8.756 8.757-8.756-8.756-3.537-3.534zM73.1-513.484l-59.394-59.393L73.1-632.27l59.393 59.393zM59.39 397.997L-.002 338.604 59.39 279.21l59.394 59.394zM-269.638-381.64l-37.498-37.5 37.498-37.497 37.498 37.498zM509.605 26.44l-37.497-37.497 37.5-37.5 37.496 37.498zM779.588 767.41L742.09 729.91l37.5-37.5 37.497 37.498zM-565.876 178.58l-37.5-37.498 37.5-37.5 37.498 37.5zM-301.824-268.303l111.364-111.363 7.424 7.424L-294.4-260.878zM612.972 358.757l111.363-111.364 7.425 7.425L620.396 366.18zM-.005 834.433L111.358 723.07l7.425 7.424L7.42 841.858zM-334.827 493.653l111.363-111.364 7.425 7.424L-327.4 501.077zM704.617-338.792L815.98-450.155l7.425 7.425-111.363 111.363z"/></svg>