<svg xmlns="http://www.w3.org/2000/svg" width="23" height="19" viewBox="0 0 23 19" fill="#f18081"><path d="M22.1 14.473L14.394 1.99C13.574.663 12.494 0 11.414 0S9.257.663 8.438 1.99L.73 14.473c-1.64 2.653-.428 4.824 2.69 4.824h15.988c3.12 0 4.33-2.17 2.692-4.824zm-1.31 2.433c-.086.157-.526.39-1.38.39H3.42c-.853 0-1.294-.233-1.38-.39-.09-.158-.057-.655.393-1.382L10.138 3.04c.403-.65.88-1.04 1.277-1.04s.874.39 1.276 1.04L20.4 15.525c.45.727.48 1.225.393 1.382z"/><path d="M11.415 5.383c-.55 0-1 .45-1 1v4.75c0 .55.45 1 1 1s1-.45 1-1v-4.75c0-.55-.45-1-1-1z"/><circle cx="11.415" cy="14.377" r="1"/></svg>
