<svg xmlns="http://www.w3.org/2000/svg" width="11" height="11" viewBox="3.073 3.072 11 11"><g fill="#616775"><path d="M8.498 8.498c1.498 0 2.713-1.215 2.713-2.713S9.997 3.072 8.5 3.072 5.786 4.287 5.786 5.785 7 8.498 8.498 8.498zm0-4.426c.944 0 1.713.768 1.713 1.712S9.443 7.498 8.5 7.498s-1.712-.77-1.712-1.713.768-1.713 1.712-1.713zM8.498 9.854c-4.137 0-5.425 2.714-5.425 2.714v1.356h10.85v-1.356S12.636 9.854 8.5 9.854zm4.426 3.07h-8.85v-.088c.336-.513 1.554-1.982 4.424-1.982 2.88 0 4.096 1.48 4.426 1.98v.09z"/></g></svg>
