<svg xmlns="http://www.w3.org/2000/svg" width="15" height="15" viewBox="134.216 92.735 15 15"><path fill="#f49899" d="M141.73 105.696l-.25-.218c-5.723-4.59-7.263-6.2-7.263-8.836 0-2.17 1.792-3.907 3.96-3.907 1.825 0 2.862 1.023 3.554 1.798.692-.775 1.73-1.798 3.554-1.798 2.2 0 3.96 1.768 3.96 3.907 0 2.635-1.54 4.247-7.26 8.836l-.254.218zm-3.553-12.155c-1.73 0-3.144 1.397-3.144 3.102 0 2.263 1.446 3.752 6.696 8 5.25-4.248 6.695-5.737 6.695-8 0-1.705-1.415-3.1-3.144-3.1-1.57 0-2.42.93-3.08 1.673l-.472.527-.472-.527c-.658-.744-1.506-1.674-3.08-1.674z"/></svg>
