<svg xmlns="http://www.w3.org/2000/svg" width="46" height="35" viewBox="0 0 46 35"><path fill="#010101" d="M43.81 35.004H2.16C.97 35.004 0 34.042 0 32.86V5.426c0-1.183.97-2.145 2.16-2.145h11.33c.415 0 1.09-.304 1.362-.613l1.26-1.43C16.737.53 17.918 0 18.863 0h8.13c.943 0 2.125.532 2.75 1.24L31 2.667c.274.31.95.613 1.362.613h11.446c1.192 0 2.16.963 2.16 2.146v27.432c.002 1.184-.967 2.146-2.16 2.146zM2.16 5.11c-.17 0-.317.145-.317.316v27.432c0 .17.146.315.318.315H43.81c.173 0 .317-.145.317-.315V5.428c0-.172-.145-.317-.317-.317H32.362c-.944 0-2.125-.53-2.748-1.237l-1.26-1.43c-.274-.31-.95-.613-1.363-.613h-8.127c-.415 0-1.09.304-1.363.614l-1.26 1.43c-.622.705-1.804 1.237-2.75 1.237H2.16z"/><path fill="#010101" d="M22.985 30.155c-5.9 0-10.703-4.766-10.703-10.624 0-5.856 4.802-10.622 10.703-10.622 5.903 0 10.703 4.766 10.703 10.623 0 5.86-4.8 10.625-10.703 10.625zm0-19.416c-4.886 0-8.86 3.943-8.86 8.792s3.974 8.793 8.86 8.793c4.885 0 8.86-3.944 8.86-8.793 0-4.85-3.975-8.793-8.86-8.793zM44.694 20.697H38.55c-.507 0-.92-.41-.92-.915s.413-.914.92-.914h6.144c.51 0 .922.41.922.914s-.413.915-.922.915zM7.83 20.697H1.33c-.51 0-.92-.41-.92-.915s.412-.914.92-.914H7.83c.51 0 .923.41.923.914s-.414.915-.922.915z"/><path fill="#010101" d="M22.986 25.25c-3.176 0-5.76-2.565-5.76-5.718 0-3.15 2.584-5.716 5.76-5.716 3.175 0 5.757 2.564 5.757 5.716s-2.583 5.718-5.757 5.718zm0-9.604c-2.16 0-3.916 1.743-3.916 3.886 0 2.145 1.757 3.886 3.916 3.886 2.16 0 3.916-1.742 3.916-3.886 0-2.143-1.757-3.886-3.916-3.886z"/></svg>